<?xml version="1.0" encoding="UTF-8" standalone="no"?>
<!-- Created with Inkscape (http://www.inkscape.org/) -->

<svg
   xmlns:dc="http://purl.org/dc/elements/1.1/"
   xmlns:cc="http://creativecommons.org/ns#"
   xmlns:rdf="http://www.w3.org/1999/02/22-rdf-syntax-ns#"
   xmlns:svg="http://www.w3.org/2000/svg"
   xmlns="http://www.w3.org/2000/svg"
   xmlns:sodipodi="http://sodipodi.sourceforge.net/DTD/sodipodi-0.dtd"
   xmlns:inkscape="http://www.inkscape.org/namespaces/inkscape"
   version="1.1"
   id="svg815"
   xml:space="preserve"
   width="995.95068"
   height="281.23734"
   viewBox="0 0 995.95068 281.23734"
   sodipodi:docname="logo horizontal.svg"
   inkscape:version="0.92.3 (2405546, 2018-03-11)"><metadata
     id="metadata821"><rdf:RDF><cc:Work
         rdf:about=""><dc:format>image/svg+xml</dc:format><dc:type
           rdf:resource="http://purl.org/dc/dcmitype/StillImage" /><dc:title></dc:title></cc:Work></rdf:RDF></metadata><defs
     id="defs819"><linearGradient
       x1="0"
       y1="0"
       x2="1"
       y2="0"
       gradientUnits="userSpaceOnUse"
       gradientTransform="matrix(231.73878,133.79445,133.79445,-231.73878,-10.450319,38.584705)"
       spreadMethod="pad"
       id="linearGradient843"><stop
         style="stop-opacity:1;stop-color:#00acdf"
         offset="0"
         id="stop837" /><stop
         style="stop-opacity:1;stop-color:#4dbf5e"
         offset="0.84027965"
         id="stop839" /><stop
         style="stop-opacity:1;stop-color:#4dbf5e"
         offset="1"
         id="stop841" /></linearGradient></defs><sodipodi:namedview
     pagecolor="#ffffff"
     bordercolor="#666666"
     borderopacity="1"
     objecttolerance="10"
     gridtolerance="10"
     guidetolerance="10"
     inkscape:pageopacity="0"
     inkscape:pageshadow="2"
     inkscape:window-width="732"
     inkscape:window-height="480"
     id="namedview817"
     showgrid="false"
     inkscape:zoom="0.87353723"
     inkscape:cx="497.97534"
     inkscape:cy="140.61867"
     inkscape:window-x="0"
     inkscape:window-y="0"
     inkscape:window-maximized="1"
     inkscape:current-layer="g823" /><g
     id="g823"
     inkscape:groupmode="layer"
     inkscape:label="ID visual Highlight"
     transform="matrix(1.3333333,0,0,-1.3333333,0,281.23733)"><g
       id="g825"><g
         id="g827"><g
           id="g833"><g
             id="g835"><path
               d="m 182.865,210.928 c -15.308,0 -27.741,-12.287 -27.989,-27.533 v 0 c -2.413,-25.312 -23.753,-44.881 -48.978,-45.137 v 0 h -0.069 c -0.122,0 -0.243,-0.005 -0.361,-0.005 v 0 h -0.077 c -0.118,0 -0.239,0.005 -0.361,0.005 v 0 h -0.069 c -25.225,0.256 -46.565,19.825 -48.977,45.137 v 0 c -0.249,15.246 -12.683,27.533 -27.99,27.533 v 0 C 12.534,210.928 0,198.394 0,182.935 v 0 c 0,-10.243 5.503,-19.201 13.711,-24.079 v 0 c 4.743,-8.337 14.014,-27.226 14.113,-52.954 v 0 c 0.005,-0.143 0.005,-0.291 0.005,-0.438 v 0 c 0,-0.148 0,-0.295 -0.005,-0.439 v 0 C 27.725,79.297 18.454,60.41 13.711,52.073 v 0 C 5.503,47.194 0,38.236 0,27.994 v 0 C 0,12.608 12.414,0.12 27.771,0 v 0 h 0.445 c 15.205,0.119 27.52,12.361 27.768,27.534 v 0 c 2.412,25.281 23.705,44.837 48.894,45.133 v 0 c 0.052,0.004 0.101,0.004 0.152,0.004 v 0 c 0.291,0.003 0.582,0.003 0.868,-0.004 v 0 c 25.19,-0.296 46.483,-19.852 48.896,-45.133 v 0 C 155.04,12.361 167.356,0.119 182.56,0 v 0 h 0.445 c 15.357,0.12 27.771,12.608 27.771,27.994 v 0 c 0,10.242 -5.503,19.2 -13.71,24.079 v 0 c -4.744,8.337 -14.014,27.224 -14.114,52.952 v 0 h 0.082 c -0.004,0.144 -0.004,0.291 -0.004,0.439 v 0 c 0,25.949 9.349,45.007 14.119,53.392 v 0 c 8.207,4.878 13.71,13.836 13.71,24.079 v 0 c 0,15.459 -12.535,27.993 -27.994,27.993 z M 85.199,104.885 c -0.006,0.189 -0.006,0.384 -0.006,0.579 v 0 c 0,0.195 0,0.39 0.006,0.579 v 0 c 0.304,10.76 8.99,19.422 19.755,19.698 v 0 c 0.171,0.005 0.343,0.005 0.522,0.005 v 0 c 0.143,0 0.287,0 0.43,-0.005 v 0 c 10.766,-0.276 19.451,-8.938 19.755,-19.698 v 0 c 0.006,-0.143 0.011,-0.349 0.013,-0.594 v 0 c 0.043,-7.931 -5.446,-13.702 -5.859,-14.124 v 0 c -5.529,-5.65 -12.426,-6.08 -13.933,-6.138 v 0 h -0.085 c -0.103,-0.005 -0.213,-0.005 -0.321,-0.005 v 0 c -0.179,0 -0.351,0 -0.522,0.005 v 0 h -0.086 c -10.725,0.321 -19.365,8.967 -19.669,19.698"
               style="fill:url(#linearGradient843);stroke:none"
               id="path845"
               inkscape:connector-curvature="0" /></g></g></g></g><text
       transform="matrix(1,0,0,-1,244.9473,78.874)"
       style="font-variant:normal;font-weight:normal;font-stretch:normal;font-size:133.13279724px;font-family:'Nexa Light';-inkscape-font-specification:NexaLight;writing-mode:lr-tb;fill:#4dc2a9;fill-opacity:1;fill-rule:nonzero;stroke:none"
       id="text849"><tspan
         x="0 74.554367 99.716469 173.33891 247.89328 272.65598 297.81808 371.44052 445.99487"
         y="0"
         sodipodi:role="line"
         id="tspan847">highlight</tspan></text>
</g></svg>