<?xml version="1.0" encoding="UTF-8" standalone="no"?>
<!-- Created with Inkscape (http://www.inkscape.org/) -->

<svg
   xmlns:dc="http://purl.org/dc/elements/1.1/"
   xmlns:cc="http://creativecommons.org/ns#"
   xmlns:rdf="http://www.w3.org/1999/02/22-rdf-syntax-ns#"
   xmlns:svg="http://www.w3.org/2000/svg"
   xmlns="http://www.w3.org/2000/svg"
   xmlns:sodipodi="http://sodipodi.sourceforge.net/DTD/sodipodi-0.dtd"
   xmlns:inkscape="http://www.inkscape.org/namespaces/inkscape"
   version="1.1"
   id="svg1432"
   xml:space="preserve"
   width="1101.0227"
   height="279.21732"
   viewBox="0 0 1101.0227 279.21732"
   sodipodi:docname="logo horizontal branca.svg"
   inkscape:version="0.92.3 (2405546, 2018-03-11)"><metadata
     id="metadata1438"><rdf:RDF><cc:Work
         rdf:about=""><dc:format>image/svg+xml</dc:format><dc:type
           rdf:resource="http://purl.org/dc/dcmitype/StillImage" /><dc:title></dc:title></cc:Work></rdf:RDF></metadata><defs
     id="defs1436"><clipPath
       clipPathUnits="userSpaceOnUse"
       id="clipPath1448"><path
         d="M 0,209.413 H 825.767 V 0 H 0 Z"
         id="path1446"
         inkscape:connector-curvature="0" /></clipPath></defs><sodipodi:namedview
     pagecolor="#ffffff"
     bordercolor="#666666"
     borderopacity="1"
     objecttolerance="10"
     gridtolerance="10"
     guidetolerance="10"
     inkscape:pageopacity="0"
     inkscape:pageshadow="2"
     inkscape:window-width="732"
     inkscape:window-height="480"
     id="namedview1434"
     showgrid="false"
     inkscape:zoom="0.31606978"
     inkscape:cx="550.51135"
     inkscape:cy="139.60866"
     inkscape:window-x="0"
     inkscape:window-y="0"
     inkscape:window-maximized="0"
     inkscape:current-layer="g1440" /><g
     id="g1440"
     inkscape:groupmode="layer"
     inkscape:label="ID visual Highlight"
     transform="matrix(1.3333333,0,0,-1.3333333,0,279.21733)"><g
       id="g1442"><g
         id="g1444"
         clip-path="url(#clipPath1448)"><g
           id="g1450"
           transform="translate(119.6523,108.9874)"><path
             d="m 0,0 c 0.041,-7.55 -5.186,-13.045 -5.578,-13.446 -5.265,-5.38 -11.831,-5.788 -13.265,-5.844 h -0.082 c -0.098,-0.005 -0.202,-0.005 -0.305,-0.005 -0.169,0 -0.333,0 -0.498,0.005 h -0.082 c -10.211,0.306 -18.436,8.537 -18.725,18.754 -0.006,0.181 -0.006,0.366 -0.006,0.552 0,0.185 0,0.371 0.006,0.55 0.289,10.246 8.557,18.493 18.807,18.754 0.165,0.006 0.329,0.006 0.498,0.006 0.136,0 0.272,0 0.409,-0.006 C -8.571,19.059 -0.302,10.812 -0.013,0.566 -0.008,0.431 -0.001,0.235 0,0 m 67.971,-50.817 c -4.517,7.937 -13.343,25.92 -13.438,50.415 h 0.078 c -0.004,0.136 -0.004,0.277 -0.004,0.418 0,24.706 8.901,42.85 13.442,50.833 7.814,4.644 13.054,13.173 13.054,22.925 0,14.718 -11.934,26.652 -26.653,26.652 -14.574,0 -26.412,-11.698 -26.647,-26.214 C 25.505,50.113 5.187,31.481 -18.829,31.238 h -0.066 c -0.116,0 -0.231,-0.005 -0.342,-0.005 h -0.075 c -0.112,0 -0.227,0.005 -0.343,0.005 h -0.066 c -24.016,0.243 -44.334,18.875 -46.632,42.974 -0.235,14.516 -12.073,26.214 -26.647,26.214 -14.719,0 -26.652,-11.934 -26.652,-26.652 0,-9.752 5.239,-18.281 13.053,-22.925 4.516,-7.938 13.343,-25.921 13.438,-50.416 0.004,-0.136 0.004,-0.277 0.004,-0.417 0,-0.141 0,-0.282 -0.004,-0.418 -0.095,-24.495 -8.922,-42.478 -13.438,-50.415 -7.814,-4.645 -13.053,-13.174 -13.053,-22.926 0,-14.719 11.933,-26.652 26.652,-26.652 14.574,0 26.412,11.698 26.647,26.214 2.298,24.07 22.571,42.689 46.553,42.97 0.05,0.004 0.095,0.004 0.145,0.004 0.277,0.004 0.553,0.004 0.826,-0.004 23.983,-0.281 44.256,-18.9 46.553,-42.97 0.235,-14.516 12.074,-26.214 26.648,-26.214 14.719,0 26.652,11.933 26.652,26.652 0,9.752 -5.24,18.281 -13.053,22.926"
             style="fill:#ffffff;fill-opacity:1;fill-rule:nonzero;stroke:none"
             id="path1452"
             inkscape:connector-curvature="0" /></g><text
           transform="matrix(1,0,0,-1,231.083,68.9844)"
           style="font-variant:normal;font-weight:normal;font-stretch:normal;font-size:157.71549988px;font-family:'Nexa Light';-inkscape-font-specification:NexaLight;writing-mode:lr-tb;fill:#ffffff;fill-opacity:1;fill-rule:nonzero;stroke:none"
           id="text1456"><tspan
             x="0 88.320679 118.12891 205.34558 293.66626 323.00134 352.80957 440.02625 528.34692"
             y="0"
             sodipodi:role="line"
             id="tspan1454">highlight</tspan></text>
<text
           transform="matrix(1,0,0,-1,-503.8896,-77.0439)"
           style="font-variant:normal;font-weight:normal;font-stretch:normal;font-size:132.42419434px;font-family:'Nexa Light';-inkscape-font-specification:NexaLight;writing-mode:lr-tb;fill:#ffffff;fill-opacity:1;fill-rule:nonzero;stroke:none"
           id="text1460"><tspan
             x="0 74.157555 99.185722 172.41631 246.57387 271.20477 296.23294 369.46353 443.62106"
             y="0"
             sodipodi:role="line"
             id="tspan1458">highlight</tspan></text>
</g></g></g></svg>