<?xml version="1.0" encoding="UTF-8" standalone="no"?>
<!-- Created with Inkscape (http://www.inkscape.org/) -->

<svg
   xmlns:dc="http://purl.org/dc/elements/1.1/"
   xmlns:cc="http://creativecommons.org/ns#"
   xmlns:rdf="http://www.w3.org/1999/02/22-rdf-syntax-ns#"
   xmlns:svg="http://www.w3.org/2000/svg"
   xmlns="http://www.w3.org/2000/svg"
   xmlns:sodipodi="http://sodipodi.sourceforge.net/DTD/sodipodi-0.dtd"
   xmlns:inkscape="http://www.inkscape.org/namespaces/inkscape"
   version="1.1"
   id="svg859"
   xml:space="preserve"
   width="669.18933"
   height="485.53467"
   viewBox="0 0 669.18933 485.53467"
   sodipodi:docname="logo branca.svg"
   inkscape:version="0.92.3 (2405546, 2018-03-11)"><metadata
     id="metadata865"><rdf:RDF><cc:Work
         rdf:about=""><dc:format>image/svg+xml</dc:format><dc:type
           rdf:resource="http://purl.org/dc/dcmitype/StillImage" /><dc:title></dc:title></cc:Work></rdf:RDF></metadata><defs
     id="defs863"><clipPath
       clipPathUnits="userSpaceOnUse"
       id="clipPath875"><path
         d="M 0,364.151 H 501.892 V 0 H 0 Z"
         id="path873"
         inkscape:connector-curvature="0" /></clipPath></defs><sodipodi:namedview
     pagecolor="#ffffff"
     bordercolor="#666666"
     borderopacity="1"
     objecttolerance="10"
     gridtolerance="10"
     guidetolerance="10"
     inkscape:pageopacity="0"
     inkscape:pageshadow="2"
     inkscape:window-width="1366"
     inkscape:window-height="745"
     id="namedview861"
     showgrid="false"
     inkscape:zoom="0.4860621"
     inkscape:cx="334.59467"
     inkscape:cy="242.76733"
     inkscape:window-x="-8"
     inkscape:window-y="-8"
     inkscape:window-maximized="1"
     inkscape:current-layer="g867" /><g
     id="g867"
     inkscape:groupmode="layer"
     inkscape:label="ID visual Highlight"
     transform="matrix(1.3333333,0,0,-1.3333333,0,485.53467)"><g
       id="g869"><g
         id="g871"
         clip-path="url(#clipPath875)"><text
           transform="matrix(1,0,0,-1,-518.5264,42.6416)"
           style="font-variant:normal;font-weight:normal;font-stretch:normal;font-size:132.42419434px;font-family:'Nexa Light';-inkscape-font-specification:NexaLight;writing-mode:lr-tb;fill:#4dc2a9;fill-opacity:1;fill-rule:nonzero;stroke:none"
           id="text879"><tspan
             x="0 74.157555 99.185722 172.41631 246.57387 271.20477 296.23294 369.46353 443.62106"
             y="0"
             sodipodi:role="line"
             id="tspan877">highlight</tspan></text>
<g
           id="g881"
           transform="translate(271.0882,259.2329)"><path
             d="m 0,0 c 0.043,-7.887 -5.418,-13.629 -5.827,-14.048 -5.5,-5.62 -12.361,-6.047 -13.86,-6.105 h -0.084 c -0.103,-0.006 -0.211,-0.006 -0.32,-0.006 -0.177,0 -0.347,0 -0.518,0.006 h -0.086 c -10.669,0.32 -19.262,8.918 -19.565,19.593 -0.006,0.188 -0.006,0.382 -0.006,0.576 0,0.193 0,0.387 0.006,0.576 0.303,10.702 8.942,19.319 19.651,19.593 0.171,0.005 0.341,0.005 0.518,0.005 0.143,0 0.285,0 0.428,-0.005 C -8.955,19.911 -0.315,11.294 -0.014,0.592 -0.008,0.449 -0.001,0.245 0,0 m 71.012,-53.092 c -4.719,8.293 -13.94,27.081 -14.039,52.672 h 0.082 c -0.004,0.142 -0.004,0.289 -0.004,0.436 0,25.811 9.299,44.767 14.043,53.107 8.163,4.853 13.637,13.763 13.637,23.951 0,15.377 -12.467,27.844 -27.844,27.844 C 41.66,104.918 29.292,92.697 29.046,77.531 26.646,52.355 5.419,32.89 -19.671,32.635 h -0.069 c -0.121,0 -0.241,-0.005 -0.359,-0.005 h -0.077 c -0.117,0 -0.237,0.005 -0.358,0.005 h -0.07 c -25.089,0.255 -46.317,19.72 -48.716,44.896 -0.246,15.166 -12.615,27.387 -27.841,27.387 -15.377,0 -27.845,-12.467 -27.845,-27.844 0,-10.188 5.475,-19.098 13.638,-23.951 4.719,-8.293 13.939,-27.08 14.039,-52.671 0.004,-0.143 0.004,-0.289 0.004,-0.436 0,-0.147 0,-0.294 -0.004,-0.436 -0.1,-25.591 -9.32,-44.379 -14.039,-52.672 -8.163,-4.852 -13.638,-13.762 -13.638,-23.95 0,-15.377 12.468,-27.845 27.845,-27.845 15.226,0 27.595,12.221 27.841,27.387 2.399,25.146 23.579,44.598 48.634,44.892 0.052,0.005 0.1,0.005 0.152,0.005 0.289,0.004 0.578,0.004 0.863,-0.005 25.056,-0.294 46.234,-19.746 48.635,-44.892 0.246,-15.166 12.614,-27.387 27.841,-27.387 15.377,0 27.844,12.468 27.844,27.845 0,10.188 -5.474,19.098 -13.637,23.95"
             style="fill:#ffffff;fill-opacity:1;fill-rule:nonzero;stroke:none"
             id="path883"
             inkscape:connector-curvature="0" /></g><text
           transform="matrix(1,0,0,-1,3.3662,42.6416)"
           style="font-variant:normal;font-weight:normal;font-stretch:normal;font-size:132.42419434px;font-family:'Nexa Light';-inkscape-font-specification:NexaLight;writing-mode:lr-tb;fill:#ffffff;fill-opacity:1;fill-rule:nonzero;stroke:none"
           id="text887"><tspan
             x="0 74.157555 99.185722 172.41631 246.57387 271.20477 296.23294 369.46353 443.62106"
             y="0"
             sodipodi:role="line"
             id="tspan885">highlight</tspan></text>
</g></g></g></svg>