<?xml version="1.0" encoding="UTF-8" standalone="no"?>
<!-- Created with Inkscape (http://www.inkscape.org/) -->
<svg xmlns:dc="http://purl.org/dc/elements/1.1/" xmlns:cc="http://creativecommons.org/ns#" xmlns:rdf="http://www.w3.org/1999/02/22-rdf-syntax-ns#" xmlns:svg="http://www.w3.org/2000/svg" xmlns="http://www.w3.org/2000/svg" xmlns:sodipodi="http://sodipodi.sourceforge.net/DTD/sodipodi-0.dtd" xmlns:inkscape="http://www.inkscape.org/namespaces/inkscape" width="77.744675mm" height="77.770836mm" viewBox="0 0 77.744675 77.770835" version="1.1" id="svg8" inkscape:version="0.92.3 (2405546, 2018-03-11)" sodipodi:docname="logo.svg">
  <defs id="defs2">
    <clipPath clipPathUnits="userSpaceOnUse" id="clipPath1135">
      <rect style="opacity:1;fill:#aa0000;fill-opacity:0.34579438;stroke:#019200;stroke-width:0;stroke-miterlimit:4;stroke-dasharray:none;stroke-opacity:1" id="rect1137" width="60.644188" height="45.357147" x="-188.48412" y="94.40477"/>
    </clipPath>
    <filter style="color-interpolation-filters:sRGB" inkscape:label="Invert" id="filter1145">
      <feColorMatrix values="1 0 0 0 0 0 1 0 0 0 0 0 1 0 0 -0.21 -0.72 -0.07 2 0 " result="color2" id="feColorMatrix1143"/>
    </filter>
  </defs>
  <sodipodi:namedview id="base" pagecolor="#ffffff" bordercolor="#666666" borderopacity="1.0" inkscape:pageopacity="0.0" inkscape:pageshadow="2" inkscape:zoom="0.63689602" inkscape:cx="227.73206" inkscape:cy="373.49745" inkscape:document-units="mm" inkscape:current-layer="svg8" showgrid="false" inkscape:window-width="1366" inkscape:window-height="745" inkscape:window-x="-8" inkscape:window-y="-8" inkscape:window-maximized="1"/>
  <metadata id="metadata5">
    <rdf:RDF>
      <cc:Work rdf:about="">
        <dc:format>image/svg+xml</dc:format>
        <dc:type rdf:resource="http://purl.org/dc/dcmitype/StillImage"/>
        <dc:title/>
      </cc:Work>
    </rdf:RDF>
  </metadata>
  <path style="fill:#ffffff;stroke-width:0.23630749" d="M 34.888324,73.468417 C 27.060293,72.53322 19.908925,69.049858 14.326278,63.452859 9.308947,58.42264 6.1375384,52.547582 4.7159067,45.649586 4.0110838,42.229646 3.9622027,36.185554 4.6113657,32.722905 6.9664172,20.161032 15.94405,9.811372 27.859788,5.9214756 40.23831,1.8804972 53.562955,4.884801 62.847708,13.810203 c 3.247227,3.121563 5.137377,5.693297 7.126781,9.696701 2.609638,5.251528 3.604961,9.479751 3.615812,15.359989 0.0071,3.827261 -0.341801,6.373416 -1.349011,9.846917 C 68.618841,61.205983 57.889342,70.832958 45.039005,73.1209 42.38522,73.593392 37.371263,73.765052 34.888324,73.468417 Z M 16.480036,56.527265 c 0.143008,-0.09549 0.386011,-0.412876 0.540004,-0.705305 0.235912,-0.447977 0.47403,-0.531458 1.512303,-0.530198 1.120763,0.0018 1.268736,0.06556 1.634849,0.708922 0.431355,0.758063 1.336605,0.962384 1.798425,0.405919 0.255159,-0.307451 -0.571702,-2.398859 -2.286548,-5.783414 -1.122567,-2.215589 -1.324513,-2.09599 -3.192192,1.890463 -0.867703,1.852058 -1.575143,3.491444 -1.572088,3.64308 0.0094,0.464973 1.053599,0.712164 1.565247,0.370533 z m 1.748607,-3.34982 c 0,-0.396148 0.419101,-0.49425 0.55859,-0.130746 0.08235,0.214486 -7.41e-4,0.353108 -0.211547,0.353108 -0.190871,0 -0.347043,-0.100066 -0.347043,-0.222362 z m 10.405266,3.172203 c 1.074275,-0.555527 1.47129,-1.588156 1.595774,-4.150547 0.12219,-2.515333 -0.106907,-3.289133 -0.973798,-3.289133 -0.93225,0 -1.102328,0.428962 -1.102328,2.780325 0,2.6703 -0.192015,3.127359 -1.313849,3.127359 -1.082385,0 -1.285537,-0.541389 -1.285537,-3.425915 0,-2.006078 -0.0443,-2.227682 -0.472609,-2.363616 -0.259936,-0.08253 -0.68529,-0.08253 -0.945235,0 -0.434982,0.13806 -0.472609,0.357538 -0.472609,2.756826 0,2.911213 0.328609,3.991258 1.389836,4.56797 0.82018,0.445717 2.715456,0.443993 3.580355,-0.0036 z m 6.541583,0.168739 c 0.191112,-0.121439 0.309693,-1.088619 0.354466,-2.891144 l 0.06725,-2.708668 1.063379,-0.118153 c 0.887906,-0.09866 1.076124,-0.208037 1.140599,-0.662846 0.151422,-1.068166 -0.272949,-1.227608 -3.267366,-1.227608 -2.994417,0 -3.418788,0.159442 -3.267367,1.227608 0.06448,0.454809 0.252703,0.564191 1.140599,0.662846 l 1.063389,0.118153 0.06752,2.585354 c 0.03715,1.421944 0.183083,2.724593 0.324314,2.89477 0.285757,0.344311 0.875143,0.398033 1.31317,0.119688 z m 9.637748,-0.346829 c 1.064049,-0.595245 2.008606,-2.176497 2.008606,-3.362521 0,-0.961267 -0.901589,-2.690145 -1.71005,-3.279164 -0.413127,-0.300994 -1.1523,-0.50771 -2.046752,-0.572408 -1.693706,-0.122511 -3.062752,0.523759 -3.867347,1.825631 -0.666999,1.079223 -0.688184,2.903674 -0.04635,3.995214 1.074748,1.827908 3.720944,2.479071 5.661932,1.393248 z m -3.420449,-1.820513 c -0.645716,-0.645706 -0.82285,-1.538051 -0.472984,-2.382703 0.823305,-1.987635 3.775272,-1.330282 3.775272,0.840695 0,1.703084 -2.141326,2.70298 -3.302288,1.542008 z m 8.92642,2.073501 c 0.155959,-0.155967 0.283569,-0.575042 0.283569,-0.931285 0,-1.082912 0.471681,-1.046696 1.541383,0.118358 0.710003,0.77329 1.190624,1.096496 1.630562,1.096496 0.673572,0 1.061271,-0.58367 0.705662,-1.062361 -1.12371,-1.512624 -1.100069,-1.411459 -0.54831,-2.346611 0.384653,-0.651941 0.479379,-1.101588 0.383171,-1.81887 -0.222908,-1.661866 -1.525521,-2.570305 -3.685549,-2.570305 -2.003577,0 -1.91739,-0.175518 -1.91739,3.90466 0,2.673131 0.07717,3.648912 0.295385,3.736984 0.524205,0.211511 1.021071,0.16338 1.311517,-0.127066 z M 50.76032,52.76965 c -0.300405,-0.300404 -0.162979,-1.745668 0.178456,-1.876682 0.564423,-0.216593 1.318154,0.346642 1.318154,0.984998 0,0.414074 -0.179519,0.656559 -0.60615,0.818769 -0.720453,0.273914 -0.69181,0.271565 -0.89046,0.07288 z m 7.121448,3.640079 c 0.136194,-0.164104 0.28214,-0.722382 0.324323,-1.240612 l 0.07672,-0.942235 0.6598,1.12246 c 0.880859,1.498512 1.499021,1.514428 2.294042,0.05913 0.319481,-0.584866 0.662863,-1.063388 0.763055,-1.063388 0.1002,0 0.182171,0.476503 0.182171,1.058887 0,0.933848 0.07011,1.076481 0.593843,1.207923 0.356922,0.08958 0.747631,0.02144 0.979327,-0.170891 0.337728,-0.280283 0.366255,-0.743228 0.230258,-3.736118 -0.210217,-4.626514 -0.62964,-4.841777 -2.598716,-1.333747 -0.626522,1.11619 -1.225964,1.975774 -1.332095,1.910183 -0.106122,-0.06556 -0.697205,-1.017597 -1.313501,-2.115585 -1.905806,-3.39529 -2.411274,-3.060268 -2.495389,1.653952 -0.0326,1.825399 0.02001,3.447056 0.116786,3.603693 0.231258,0.374195 1.204798,0.365478 1.519412,-0.01357 z M 32.979007,46.015198 c 0.862907,-1.324066 11.01868,-23.493372 10.957616,-23.919672 -0.06234,-0.435383 -0.262589,-0.484559 -2.195386,-0.539228 -1.169716,-0.03305 -2.258774,0.02581 -2.420127,0.130853 -0.161344,0.105041 -0.705421,1.142323 -1.209058,2.305063 l -0.915709,2.114076 h -5.025905 -5.025905 l -0.822769,-1.890454 c -1.212961,-2.787032 -1.153863,-2.745796 -3.821662,-2.666495 -1.809482,0.05377 -2.271186,0.139346 -2.32698,0.431168 -0.03832,0.20023 2.212463,5.266219 5.001674,11.25775 6.507216,13.978227 6.161244,13.308629 6.876365,13.308629 0.342667,0 0.723605,-0.21829 0.927846,-0.53169 z M 30.678821,34.041264 c -0.739048,-1.679327 -1.343724,-3.168068 -1.343724,-3.308308 0,-0.168266 0.96434,-0.254971 2.83569,-0.254971 2.110342,0 2.836002,0.07556 2.836931,0.295377 0.0018,0.415537 -2.643051,6.32123 -2.830894,6.32123 -0.08485,0 -0.758946,-1.374001 -1.498003,-3.053328 z m 9.905687,10.142552 0.98239,-2.24492 h 5.000209 5.000228 l 1.006835,2.24492 1.006844,2.244919 2.414176,0.06743 c 1.973122,0.05511 2.439087,0.0027 2.550451,-0.287704 0.07609,-0.198257 -2.345075,-5.684187 -5.481696,-12.420598 -4.802498,-10.314114 -5.700478,-12.086201 -6.186341,-12.208149 -0.342033,-0.08583 -0.696624,-0.01286 -0.890442,0.183369 -0.559734,0.566584 -11.424991,24.110052 -11.289584,24.462919 0.102541,0.267207 0.622816,0.322983 2.516896,0.269806 l 2.387642,-0.06707 z m 3.539333,-7.97538 c 0.332388,-0.747318 0.986892,-2.236059 1.454463,-3.308307 0.467572,-1.072239 0.913271,-1.949535 0.990456,-1.949535 0.156342,0 2.85248,6.044092 2.85248,6.394574 0,0.126655 -1.267629,0.222042 -2.950868,0.222042 h -2.950868 z" id="path1191" inkscape:connector-curvature="0" sodipodi:nodetypes="cccssccccsccccccssccscssccssssccsscccccscsccccccccscscccccssccssscccssccccsccccccccsscccscccccccccccccccccssccsscsccccccccccccccccccssscc"/>
  <g inkscape:label="Layer 1" inkscape:groupmode="layer" id="layer1" transform="translate(195.11126,-77.736399)"/>
</svg>